<svg xmlns="http://www.w3.org/2000/svg" xmlns:xlink="http://www.w3.org/1999/xlink" width="1400" height="1400" viewBox="0 0 1400 1400">
  <defs>
    <circle id="harmaja-logo-8-copydark-a" cx="698" cy="596" r="413"/>
    <polygon id="harmaja-logo-8-copydark-c" points="6 7 133 0 133 201 0 205"/>
    <polygon id="harmaja-logo-8-copydark-d" points="48.85 125.834 88 124 88 205.38 47 207"/>
    <linearGradient id="harmaja-logo-8-copydark-f" x1="35.462%" x2="55.469%" y1="59.646%" y2="38.674%">
      <stop offset="0%" stop-color="#A0A2AA"/>
      <stop offset="100%" stop-color="#2E3037"/>
    </linearGradient>
    <polygon id="harmaja-logo-8-copydark-e" points="53.353 133.459 82 132 82 202.595 52 204"/>
    <rect id="harmaja-logo-8-copydark-g" width="87" height="254"/>
    <linearGradient id="harmaja-logo-8-copydark-h" x1="-36.01%" x2="59.748%" y1="80.953%" y2="50%">
      <stop offset="0%" stop-color="#A0A2AA"/>
      <stop offset="100%" stop-color="#43454A"/>
    </linearGradient>
  </defs>
  <g fill="none" fill-rule="evenodd">
    <mask id="harmaja-logo-8-copydark-b" fill="#fff">
      <use xlink:href="#harmaja-logo-8-copydark-a"/>
    </mask>
    <use fill="#171B3F" xlink:href="#harmaja-logo-8-copydark-a"/>
    <circle cx="698" cy="596" r="219" fill="#FFE486" mask="url(#harmaja-logo-8-copydark-b)"/>
    <g transform="translate(556 421)">
      <g transform="translate(9 347)">
        <use fill="#999BA5" xlink:href="#harmaja-logo-8-copydark-c"/>
        <use fill="#A6A7AF" xlink:href="#harmaja-logo-8-copydark-d"/>
        <use fill="url(#harmaja-logo-8-copydark-f)" xlink:href="#harmaja-logo-8-copydark-e"/>
      </g>
      <polygon fill="#7F8086" points="148 354 275 347 275 548 142 552" transform="matrix(-1 0 0 1 417 0)"/>
      <path fill="#212D40" d="M5,344 L5,341 L76,326 C85.3333333,324 96.6666667,322.666667 110,322 C113.833591,321.80832 124.500258,321.474987 142,321 L142,326 L142,338 L5,344 Z"/>
      <path fill="#02122B" d="M142,344 L142,341 L213,326 C222.333333,324 233.666667,322.666667 247,322 C250.833591,321.80832 261.500258,321.474987 279,321 L279,326 L279,338 L142,344 Z" transform="matrix(-1 0 0 1 421 0)"/>
      <polygon fill="#6C6E6F" points="9 552 0 560 0 604 142 617 142 548"/>
      <polygon fill="#565859" points="151 552 142 560 142 604 284 617 284 548" transform="matrix(-1 0 0 1 426 0)"/>
      <path fill="#FFF" stroke="#5CA86B" stroke-width="2" d="M93,111 L93,56 C100.638825,54.275518 108.305492,52.9421847 116,52 C124.638825,50.9421847 133.305492,50.275518 142,50 L142,109 L93,115 L93,111 Z"/>
      <path fill="#FFF" stroke="#5CA86B" stroke-width="2" d="M142,111 L142,56 C149.638825,54.275518 157.305492,52.9421847 165,52 C173.638825,50.9421847 182.305492,50.275518 191,50 L191,109 L142,115 L142,111 Z" transform="matrix(-1 0 0 1 333 0)"/>
      <path fill="#5CA86B" d="M141.5,121 C173.256373,121 199,116.970563 199,112 C199,107.029437 173.256373,105 141.5,105 C109.743627,105 84,107.029437 84,112 C84,116.970563 109.743627,121 141.5,121 Z"/>
      <path fill="#B84137" d="M141.5,124 C173.256373,124 199,119.970563 199,115 C199,110.029437 173.256373,108 141.5,108 C109.743627,108 84,110.029437 84,115 C84,119.970563 109.743627,124 141.5,124 Z"/>
      <path fill="#B84137" d="M76,326 L84.4348565,146.337558 L82,133 L63,125 L63,121 L73,116 C79.3238899,113.479356 85.9905566,111.812689 93,111 C108.990557,109.146022 125.32389,108.479356 142,109 L142,321 L76,326 Z"/>
      <path fill="#9B2C22" d="M155,326 L163.434856,146.337558 L161,133 L142,125 L142,121 L152,116 C158.32389,113.479356 164.990557,111.812689 172,111 C187.990557,109.146022 204.32389,108.479356 221,109 L221,321 L155,326 Z" transform="matrix(-1 0 0 1 363 0)"/>
      <path fill="#5CA86B" d="M93,56 L90,55 L87,52 C94.0333688,49.7902992 102.700036,48.1236325 113,47 C121.033369,46.1236325 130.700036,45.7902992 142,46 L142,50 L93,56 Z"/>
      <path fill="#449655" d="M148,56 L145,55 L142,52 C149.033369,49.7902992 157.700036,48.1236325 168,47 C176.033369,46.1236325 185.700036,45.7902992 197,46 L197,50 L148,56 Z" transform="matrix(-1 0 0 1 339 0)"/>
      <path fill="#5CA86B" d="M94,50 C97.3333333,41.3333333 102.666667,35 110,31 C116.655298,27.3698375 127.321965,24.3698375 142,22 L142,46 L94,50 Z"/>
      <path fill="#449655" d="M142,50 C145.333333,41.3333333 150.666667,35 158,31 C164.655298,27.3698375 175.321965,24.3698375 190,22 L190,46 L142,50 Z" transform="matrix(-1 0 0 1 332 0)"/>
      <path fill="#5CA86B" d="M135,24 L137,22 L138,21 L138,17 C137.02976,16.1507905 136.363093,15.4841239 136,15 C135.455361,14.2738142 134,11 134,9 C134,7 134.309718,6.20799349 135,5 C135.873145,3.47199566 138.206479,1.805329 142,0 L142,24 L135,24 Z"/>
      <path fill="#449655" d="M143,24 L145,22 L146,21 L146,17 C145.02976,16.1507905 144.363093,15.4841239 144,15 C143.455361,14.2738142 142,11 142,9 C142,7 142.309718,6.20799349 143,5 C143.873145,3.47199566 146.206479,1.805329 150,0 L150,24 L143,24 Z" transform="matrix(-1 0 0 1 292 0)"/>
      <polygon fill="#7F7979" points="142 548 275 552 284 560 142 560"/>
      <polygon fill="#A09D9D" points="0 548 133 552 142 560 0 560" transform="matrix(-1 0 0 1 142 0)"/>
      <g transform="translate(142 329)"/>
      <polygon fill="#A6A7AF" points="188.03 450.624 231 449 231 495.643 187 497.571" opacity=".459" transform="matrix(-1 0 0 1 418 0)"/>
      <polygon fill="url(#harmaja-logo-8-copydark-h)" points="192.579 456.263 226 455 226 491.278 192 493" transform="matrix(-1 0 0 1 418 0)"/>
      <polygon fill="#918A8A" points="15 354 5 354 5 344 142 338 142 347"/>
      <polygon fill="#7F7979" points="152 354 142 354 142 344 279 338 279 347" transform="matrix(-1 0 0 1 421 0)"/>
      <rect width="2" height="57" x="115" y="51" fill="#5CA86B"/>
      <rect width="2" height="57" x="166" y="51" fill="#5CA86B"/>
      <polygon fill="#FFF" points="80 277 83 208 142 202 201 208 204 277 142 271"/>
    </g>
    <path fill="#FFF" fill-rule="nonzero" d="M337.586667,1181 L337.586667,1137.46 L377.206667,1137.46 L377.206667,1181 L404.646667,1181 L404.646667,1075.44 L377.206667,1075.44 L377.206667,1116.18 L337.586667,1116.18 L337.586667,1075.44 L310.146667,1075.44 L310.146667,1181 L337.586667,1181 Z M452.613333,1181 L458.913333,1162.66 L498.113333,1162.66 L504.413333,1181 L533.673333,1181 L493.493333,1075.44 L463.533333,1075.44 L423.353333,1181 L452.613333,1181 Z M490.833333,1141.8 L466.193333,1141.8 L478.513333,1106.66 L490.833333,1141.8 Z M579.82,1181 L579.82,1140.4 L606,1181 L640.16,1181 L606.98,1137.74 C614.54,1135.96667 620.256667,1132.58333 624.13,1127.59 C628.003333,1122.59667 629.94,1116.08667 629.94,1108.06 C629.94,1103.58 629.216667,1099.38 627.77,1095.46 C626.323333,1091.54 624.176667,1088.08667 621.33,1085.1 C618.483333,1082.11333 614.866667,1079.75667 610.48,1078.03 C606.093333,1076.30333 600.96,1075.44 595.08,1075.44 L595.08,1075.44 L552.38,1075.44 L552.38,1181 L579.82,1181 Z M585,1122.62 L579.82,1122.62 L579.82,1096.58 L585,1096.58 C590.413333,1096.58 594.566667,1097.7 597.46,1099.94 C600.353333,1102.18 601.8,1105.4 601.8,1109.6 C601.8,1113.8 600.353333,1117.02 597.46,1119.26 C594.566667,1121.5 590.413333,1122.62 585,1122.62 L585,1122.62 Z M680.846667,1181 L689.946667,1120.24 L713.606667,1181 L724.526667,1181 L749.446667,1120.24 L758.546667,1181 L785.846667,1181 L767.926667,1075.44 L740.766667,1075.44 L719.766667,1131.72 L698.626667,1075.44 L671.466667,1075.44 L653.546667,1181 L680.846667,1181 Z M829.053333,1181 L835.353333,1162.66 L874.553333,1162.66 L880.853333,1181 L910.113333,1181 L869.933333,1075.44 L839.973333,1075.44 L799.793333,1181 L829.053333,1181 Z M867.273333,1141.8 L842.633333,1141.8 L854.953333,1106.66 L867.273333,1141.8 Z M946.32,1183.94 C950.053333,1183.94 953.623333,1183.45 957.03,1182.47 C960.436667,1181.49 963.54,1180.13667 966.34,1178.41 C969.14,1176.68333 971.59,1174.58333 973.69,1172.11 C975.79,1169.63667 977.446667,1166.90667 978.66,1163.92 C979.406667,1162.05333 979.943333,1159.81333 980.27,1157.2 C980.596667,1154.58667 980.76,1151.74 980.76,1148.66 L980.76,1148.66 L980.76,1075.44 L953.32,1075.44 L953.32,1148.24 C953.32,1156.36 950.753333,1160.42 945.62,1160.42 C943.286667,1160.42 941.326667,1159.48667 939.74,1157.62 C938.153333,1155.75333 937.126667,1153.23333 936.66,1150.06 L936.66,1150.06 L918.74,1168.4 C925.833333,1178.76 935.026667,1183.94 946.32,1183.94 Z M1026.20667,1181 L1032.50667,1162.66 L1071.70667,1162.66 L1078.00667,1181 L1107.26667,1181 L1067.08667,1075.44 L1037.12667,1075.44 L996.946667,1181 L1026.20667,1181 Z M1064.42667,1141.8 L1039.78667,1141.8 L1052.10667,1106.66 L1064.42667,1141.8 Z"/>
  </g>
</svg>
